<svg xmlns="http://www.w3.org/2000/svg" viewBox="0 0 56 17.46">
  <defs><style>.cls-1{fill:#fff;}</style></defs>
  <title>Asset 1</title>
  <g id="Layer_2" data-name="Layer 2">
    <g id="Layer_1-2" data-name="Layer 1">
      <path class="cls-1" d="M53.17,17.46H2.83A2.78,2.78,0,0,1,0,14.75v-12A2.78,2.78,0,0,1,2.83,0H53.17A2.78,2.78,0,0,1,56,2.71v12A2.78,2.78,0,0,1,53.17,17.46ZM2.83,1.05A1.7,1.7,0,0,0,1.1,2.71v12a1.7,1.7,0,0,0,1.74,1.66H53.17a1.7,1.7,0,0,0,1.74-1.66v-12a1.7,1.7,0,0,0-1.74-1.66Z"/>
    </g>
  </g>
</svg>
