<svg xmlns="http://www.w3.org/2000/svg" viewBox="0 0 56 17.46">
  <defs><style>.cls-1{fill:#fff;}</style></defs>
  <title>Asset 4</title>
  <g id="Layer_2" data-name="Layer 2">
    <g id="Layer_1-2" data-name="Layer 1">
      <path class="cls-1" d="M14.75,17.46h-12A2.71,2.71,0,0,1,0,14.75v-12A2.71,2.71,0,0,1,2.71,0h12a2.71,2.71,0,0,1,2.71,2.71v12A2.71,2.71,0,0,1,14.75,17.46ZM2.71,1.05A1.66,1.66,0,0,0,1.05,2.71v12a1.66,1.66,0,0,0,1.66,1.66h12a1.66,1.66,0,0,0,1.66-1.66v-12a1.66,1.66,0,0,0-1.66-1.66Z"/>
      <path class="cls-1" d="M53.29,17.46h-12a2.71,2.71,0,0,1-2.71-2.71v-12A2.71,2.71,0,0,1,41.25,0h12A2.71,2.71,0,0,1,56,2.71v12A2.71,2.71,0,0,1,53.29,17.46Zm-12-16.41a1.66,1.66,0,0,0-1.66,1.66v12a1.66,1.66,0,0,0,1.66,1.66h12A1.66,1.66,0,0,0,55,14.75v-12a1.66,1.66,0,0,0-1.66-1.66Z"/>
      <path class="cls-1" d="M34,17.46H22a2.71,2.71,0,0,1-2.71-2.71v-12A2.71,2.71,0,0,1,22,0H34a2.71,2.71,0,0,1,2.71,2.71v12A2.71,2.71,0,0,1,34,17.46ZM22,1.05a1.66,1.66,0,0,0-1.66,1.66v12A1.66,1.66,0,0,0,22,16.41H34a1.66,1.66,0,0,0,1.66-1.66v-12A1.66,1.66,0,0,0,34,1.05Z"/>
    </g>
  </g>
</svg>
